<?xml version="1.0"?>
<svg xmlns="http://www.w3.org/2000/svg" width="512" height="512" viewBox="0 0 128 128"><g><g><path d="M96.866,126.2H1.75l10.266-22.324H119.19A22.324,22.324,0,0,1,96.866,126.2Z" fill="#ff9f22"/><rect x="4.955" y="94.017" width="121.295" height="9.856" rx="4.804" fill="#3c3a41"/><path d="M69.706,94.017H61.5V5.8a4,4,0,0,1,4-4h.206a4,4,0,0,1,4,4Z" fill="#57555c"/><path d="M113.813,81.17H69.706v-67.7l1.345.626A73.984,73.984,0,0,1,113.813,81.17Z" fill="#81c8ee"/><path d="M17.393,81.17H61.5v-67.7l-3.511,7.872a205.7,205.7,0,0,1-40.6,59.827Z" fill="#81c8ee"/></g><g><path d="M45.5,124.447H38.249a1.75,1.75,0,1,0,0,3.5H45.5a1.75,1.75,0,0,0,0-3.5Z"/><path d="M121.446,92.267H71.456V82.92h42.357a1.751,1.751,0,0,0,1.75-1.75,75.856,75.856,0,0,0-17.83-48.815,1.75,1.75,0,0,0-2.676,2.256A72.352,72.352,0,0,1,112.041,79.42H71.456V16.227a72.285,72.285,0,0,1,14.862,9.654A1.75,1.75,0,1,0,88.571,23.2,75.736,75.736,0,0,0,71.789,12.51l-.333-.155V5.8a5.757,5.757,0,0,0-5.75-5.75H65.5a5.757,5.757,0,0,0-5.75,5.75v7.3L56.391,20.63A203.317,203.317,0,0,1,16.14,79.948a1.75,1.75,0,0,0,1.253,2.972H59.749v9.347H9.76a6.561,6.561,0,0,0-6.554,6.554v.247A6.559,6.559,0,0,0,9.3,105.6L.16,125.466a1.749,1.749,0,0,0,1.59,2.481h20.5a1.75,1.75,0,0,0,0-3.5H4.481l8.656-18.824H117.366a20.6,20.6,0,0,1-20.5,18.824H61.5a1.75,1.75,0,1,0,0,3.5H96.866a24.1,24.1,0,0,0,24-22.324h.577A6.561,6.561,0,0,0,128,99.068v-.247A6.561,6.561,0,0,0,121.446,92.267ZM21.487,79.42a206.721,206.721,0,0,0,38.1-57.364l.162-.365V79.42Zm41.762,1.75V5.8a2.253,2.253,0,0,1,2.25-2.25h.207a2.253,2.253,0,0,1,2.25,2.25V92.267H63.249Zm61.251,17.9a3.058,3.058,0,0,1-3.054,3.055H9.76a3.058,3.058,0,0,1-3.054-3.055v-.247A3.057,3.057,0,0,1,9.76,95.767H121.446a3.057,3.057,0,0,1,3.054,3.054Z"/></g></g></svg>
