<?xml version="1.0" encoding="iso-8859-1"?>
<!-- Generator: Adobe Illustrator 19.0.0, SVG Export Plug-In . SVG Version: 6.00 Build 0)  -->
<svg version="1.1" id="Capa_1" xmlns="http://www.w3.org/2000/svg" xmlns:xlink="http://www.w3.org/1999/xlink" x="0px" y="0px"
	 viewBox="0 0 512 512" style="enable-background:new 0 0 512 512;" xml:space="preserve">
<g>
	<path style="fill:#FFFFFF;" d="M307.965,38.813l-11.901-8.768V315.96h151.955l0,0C448.02,206.574,396.032,103.697,307.965,38.813z"
		/>
	<polygon style="fill:#FFFFFF;" points="216.088,80.559 216.088,315.96 91.125,315.96 	"/>
</g>
<path style="fill:#B6F1FF;" d="M64.133,437.912l-0.135-0.112c-24.758-20.515-43.388-47.45-53.849-77.853l0,0h245.927h245.927l0,0
	c-10.461,30.403-29.092,57.338-53.849,77.853l-0.135,0.112H64.133z"/>
<path d="M280.748,491.952c-10.842,0-21.68-3.588-30.725-10.767l-0.202-0.161c-10.794-8.563-25.86-8.55-36.638,0.034
	c-18.142,14.45-43.443,14.473-61.57,0.084l-0.189-0.15c-10.78-8.556-25.835-8.557-36.611,0.001l-0.187,0.148
	c-18.129,14.396-43.435,14.375-61.541-0.047c-0.014-0.01-0.066-0.053-0.08-0.064c-10.74-8.556-25.809-8.568-36.602-0.002
	l-0.185,0.146c-4.324,3.437-10.611,2.716-14.047-1.605c-3.436-4.323-2.717-10.611,1.605-14.047l0.19-0.151
	c18.134-14.39,43.433-14.368,61.536,0.051c0.014,0.011,0.066,0.053,0.08,0.064c10.742,8.556,25.813,8.568,36.608-0.003l0.187-0.148
	c18.097-14.369,43.374-14.371,61.472-0.007l0.189,0.15c10.799,8.57,25.866,8.558,36.645-0.028
	c18.141-14.447,43.439-14.472,61.566-0.088l0.202,0.161c10.774,8.549,25.825,8.549,36.597-0.002l0.193-0.153
	c18.13-14.389,43.429-14.365,61.528,0.049c0.017,0.013,0.033,0.026,0.05,0.04c10.795,8.563,25.85,8.55,36.634-0.038
	c18.099-14.416,43.4-14.439,61.525-0.056l0.149,0.119c10.802,8.571,25.868,8.557,36.646-0.028c4.318-3.44,10.609-2.727,14.049,1.592
	c3.439,4.319,2.727,10.608-1.592,14.048c-18.102,14.417-43.4,14.438-61.524,0.056l-0.149-0.118
	c-10.803-8.571-25.868-8.558-36.647,0.027c-18.132,14.442-43.459,14.443-61.592,0.002c-0.016-0.013-0.032-0.026-0.048-0.039
	c-10.777-8.551-25.817-8.55-36.594,0.004l-0.193,0.153C302.436,488.36,291.59,491.951,280.748,491.952z"/>
<path d="M112.548,369.947c-2.629,0-5.208-1.07-7.068-2.929c-1.858-1.859-2.929-4.439-2.929-7.068c0-2.629,1.07-5.208,2.929-7.068
	c1.859-1.869,4.439-2.929,7.068-2.929c2.639,0,5.208,1.06,7.068,2.929c1.858,1.859,2.929,4.439,2.929,7.068
	c0,2.629-1.07,5.208-2.929,7.068C117.757,368.877,115.187,369.947,112.548,369.947z"/>
<path d="M64.127,447.91c-2.249,0-4.512-0.755-6.378-2.304l-0.135-0.112C31.441,423.805,11.757,395.348,0.696,363.2
	c-1.051-3.055-0.562-6.429,1.315-9.059c1.876-2.629,4.908-4.191,8.139-4.191h56.371c5.52,0,9.997,4.476,9.997,9.997
	c0,5.521-4.477,9.997-9.997,9.997H24.81c10.313,23.245,25.882,43.846,45.567,60.158l0.14,0.116
	c4.249,3.525,4.836,9.828,1.311,14.077C69.85,446.678,67,447.91,64.127,447.91z"/>
<path d="M510.141,354.141c-1.876-2.629-4.908-4.191-8.139-4.191h-235.93V30.045c0-5.521-4.477-9.997-9.997-9.997
	c-5.52,0-9.997,4.476-9.997,9.997V349.95h-92.473c-5.52,0-9.997,4.476-9.997,9.997c0,5.521,4.477,9.997,9.997,9.997h333.736
	c-10.313,23.245-25.883,43.847-45.572,60.162l-0.135,0.112c-4.249,3.525-4.836,9.828-1.311,14.077
	c1.978,2.383,4.828,3.614,7.7,3.614c2.249,0,4.512-0.756,6.378-2.304l0.13-0.107c26.179-21.693,45.862-50.151,56.923-82.299
	C512.507,360.145,512.018,356.771,510.141,354.141z"/>
<path d="M296.065,175.375c-2.629,0-5.208-1.07-7.068-2.929c-1.859-1.859-2.929-4.439-2.929-7.068c0-2.629,1.069-5.208,2.929-7.068
	c1.859-1.859,4.439-2.929,7.068-2.929c2.629,0,5.208,1.07,7.067,2.929c1.859,1.859,2.93,4.439,2.93,7.068
	c0,2.629-1.07,5.208-2.93,7.068C301.273,174.305,298.694,175.375,296.065,175.375z"/>
<path d="M296.065,325.957c-2.651,0-5.193-1.054-7.069-2.928c-1.874-1.874-2.928-4.418-2.928-7.069V200.433
	c0-5.521,4.477-9.997,9.997-9.997c5.52,0,9.997,4.476,9.997,9.997v105.531h131.809c-3.04-100.408-51.739-195.191-131.81-256.088
	v72.598c0,5.521-4.477,9.997-9.997,9.997c-5.52,0-9.997-4.476-9.997-9.997v-92.43c0-3.771,2.122-7.222,5.488-8.922
	c3.363-1.699,7.401-1.364,10.438,0.875l11.9,8.768c44.466,32.76,81.135,76.13,106.045,125.424
	c24.91,49.293,38.077,104.541,38.077,159.771c0,5.521-4.477,9.997-9.997,9.997H296.065z"/>
<path d="M216.088,325.957H91.125c-3.508,0-6.76-1.838-8.567-4.846c-1.807-3.006-1.906-6.741-0.263-9.839L207.258,75.87
	c2.153-4.055,6.787-6.125,11.246-5.014c4.455,1.109,7.582,5.109,7.582,9.701V315.96
	C226.085,321.481,221.609,325.957,216.088,325.957z M107.751,305.963h98.341V120.712L107.751,305.963z"/>
<g>
</g>
<g>
</g>
<g>
</g>
<g>
</g>
<g>
</g>
<g>
</g>
<g>
</g>
<g>
</g>
<g>
</g>
<g>
</g>
<g>
</g>
<g>
</g>
<g>
</g>
<g>
</g>
<g>
</g>
</svg>
